#Unknown ASF file
:ROOT_YZX
:FOOT_3DOF
:FULLY-SPECIFIED
:DEGREES
1
root 8.08491 17.4384 24.8626 0.21528 -179.372 -9.10246
lfemur -33.9356 0.750088 -7.30304
ltibia 25.8786
lfoot -12.4909 0 -0.174944
ltoes -20.9608
rfemur 15.7505 4.64282 34.4959
rtibia 8.93892
rfoot -12.9734 0 -5.01346
rtoes -55.0452
lowerback 8.30527 1.31107 4.65426
upperback 2.25506 1.90469 3.0486
thorax -2.25965 0.799019 0.353714
lowerneck 5.30398 -13.371 -26.1772
upperneck 8.32927 -21.0626 17.3147
head 6.28201 -10.9664 8.0494
lclavicle 1.56419e-014 3.67752e-015
lhumerus -40.2643 11.8723 80.7249
lradius 32.6854
lwrist 1.10524
lhand -12.288 30.998
lfingers 7.12502
lthumb 13.7794 60.5217
rclavicle 1.56419e-014 3.67752e-015
rhumerus -22.2978 3.07568 -81.0238
rradius 35.4866
rwrist -1.22064
rhand -23.7328 13.5206
rfingers 7.12502
rthumb 2.73545 -16.4416
2
root 8.02322 17.3507 24.3582 0.732692 -179.338 -9.35838
lfemur -34.4036 0.617433 -7.08128
ltibia 28.6216
lfoot -12.1458 0 -1.51074
ltoes -16.3162
rfemur 13.9824 5.22976 34.6636
rtibia 14.6806
rfoot -13.2517 0 -6.44258
rtoes -55.153
lowerback 8.79351 1.71242 4.79936
upperback 2.28943 2.48095 2.80905
thorax -2.46169 1.08321 -0.044759
lowerneck 5.97111 -13.4279 -26.4042
upperneck 7.34195 -21.2642 18.3433
head 6.06059 -11.0614 8.45249
lclavicle -1.16041e-014 1.15295e-014
lhumerus -40.9351 14.6655 78.3265
lradius 29.597
lwrist -0.412166
lhand -12.8994 31.3151
lfingers 7.12502
lthumb 13.1902 60.8778
rclavicle -1.16041e-014 1.15295e-014
rhumerus -21.0651 1.64327 -80.4027
rradius 37.0046
rwrist -1.80564
rhand -23.6459 13.9724
rfingers 7.12502
rthumb 2.81933 -15.9887
3
root 7.93863 17.3157 23.7651 0.767427 -179.339 -9.09441
lfemur -34.0992 0.452218 -7.71141
ltibia 31.5802
lfoot -9.8939 0 -3.98317
ltoes -17.9191
rfemur 14.9429 5.38861 34.2469
rtibia 16.7
rfoot -13.6565 0 -5.44811
rtoes -54.8816
lowerback 9.21588 2.22284 4.66677
upperback 2.35171 3.18268 2.19356
thorax -2.57941 1.44323 -0.694927
lowerneck 6.06956 -14.1392 -25.6335
upperneck 7.1023 -22.1504 18.2073
head 6.07028 -11.463 8.15637
lclavicle -1.49089e-014 4.37326e-015
lhumerus -41.5662 17.5111 75.1048
lradius 25.8892
lwrist -3.56567
lhand -13.5687 31.0116
lfingers 7.12502
lthumb 12.545 60.615
rclavicle -1.49089e-014 4.37326e-015
rhumerus -21.2574 -0.343415 -80.2535
rradius 38.4397
rwrist -2.5303
rhand -23.9901 12.8754
rfingers 7.12502
rthumb 2.48696 -17.0898
4
root 7.87263 17.3674 23.1402 1.15665 -178.021 -7.62552
lfemur -34.1675 -0.36443 -9.7601
ltibia 33.0788
lfoot -7.81407 0 -5.81272
ltoes -17.1941
rfemur 14.4544 4.90202 32.9038
rtibia 20.7897
rfoot -12.9902 0 -2.62031
rtoes -54.7868
lowerback 9.26797 2.22235 2.96528
upperback 2.40402 3.05166 1.51085
thorax -2.61736 1.40722 -0.440772
lowerneck 7.06235 -14.141 -26.1103
upperneck 6.29465 -22.5595 19.9296
head 6.02863 -11.7129 8.81143
lclavicle 2.20651e-014 1.19271e-015
lhumerus -42.7041 20.8792 71.6611
lradius 23.2529
lwrist -6.19047
lhand -12.9105 31.5251
lfingers 7.12502
lthumb 13.1795 61.0886
rclavicle 2.20651e-014 1.19271e-015
rhumerus -21.7437 -1.98472 -80.2582
rradius 39.1851
rwrist -3.42961
rhand -24.2604 13.27
rfingers 7.12502
rthumb 2.22587 -16.6981
5
root 7.78633 17.4273 22.4428 1.00839 -176.804 -6.79152
lfemur -32.7037 -0.200005 -11.426
ltibia 34.8495
lfoot -5.32521 0 -6.13172
ltoes -20.0994
rfemur 12.4587 3.54713 31.7819
rtibia 27.839
rfoot -14.2178 0 3.44818
rtoes -54.9877
lowerback 9.45837 2.24409 2.20106
upperback 2.49221 3.00889 0.929675
thorax -2.64207 1.39605 -0.615305
lowerneck 6.46554 -15.002 -25.3923
upperneck 6.80499 -23.5521 19.3188
head 6.34993 -12.1423 8.26268
lclavicle 5.1684e-015 1.43125e-014
lhumerus -44.1397 23.5044 68.2119
lradius 21.3249
lwrist -8.91973
lhand -12.764 30.0675
lfingers 7.12502
lthumb 13.3206 59.6218
rclavicle 5.1684e-015 1.43125e-014
rhumerus -23.157 -3.43293 -80.5266
rradius 39.2759
rwrist -3.93816
rhand -24.6417 14.278
rfingers 7.12502
rthumb 1.85763 -15.6937
6
root 7.67783 17.45 21.7526 0.584812 -175.767 -6.63302
lfemur -31.0809 0.57661 -12.2829
ltibia 37.0097
lfoot -6.35455 0 -7.42481
ltoes -18.5601
rfemur 9.2364 0.592408 30.6972
rtibia 36.614
rfoot -15.143 0 13.1745
rtoes -55.5263
lowerback 9.37399 2.12441 2.04874
upperback 2.77978 2.8073 0.918085
thorax -2.30938 1.29358 -0.509467
lowerneck 7.86974 -14.54 -26.2857
upperneck 5.83283 -23.4222 20.974
head 6.12302 -12.1809 9.09445
lclavicle 5.01931e-014 -3.97569e-015
lhumerus -45.328 23.8289 67.4654
lradius 21.1771
lwrist -8.49906
lhand -12.3147 30.9523
lfingers 7.12502
lthumb 13.7537 60.4778
rclavicle 5.01931e-014 -3.97569e-015
rhumerus -24.6167 -3.08993 -80.6709
rradius 39.3518
rwrist -4.07206
rhand -24.4133 14.1389
rfingers 7.12502
rthumb 2.07822 -15.8307
7
root 7.57762 17.4544 21.0797 -0.0687589 -174.455 -5.10812
lfemur -29.0544 1.45947 -14.75
ltibia 38.7306
lfoot -6.40147 0 -10.2717
ltoes -14.7479
rfemur 4.65018 -2.81736 27.8444
rtibia 47.2444
rfoot -15.4176 0 22.4931
rtoes -55.134
lowerback 9.77095 1.92127 0.717544
upperback 2.80929 2.40931 0.450942
thorax -2.54395 1.09902 -0.215526
lowerneck 6.96098 -15.1398 -25.9242
upperneck 7.02137 -24.0499 19.7871
head 6.58078 -12.431 8.42696
lclavicle 5.2181e-014 -1.31198e-014
lhumerus -46.2445 21.9702 68.0946
lradius 21.8932
lwrist -6.86507
lhand -11.2899 30.318
lfingers 7.12502
lthumb 14.7412 59.7738
rclavicle 5.2181e-014 -1.31198e-014
rhumerus -26.1477 -2.66789 -81.0509
rradius 38.97
rwrist -3.58141
rhand -23.4471 14.1896
rfingers 7.12502
rthumb 3.01132 -15.7689
8
root 7.44564 17.435 20.4024 -1.37592 -173.306 -3.1375
lfemur -25.828 1.06135 -17.6015
ltibia 40.2975
lfoot -9.62977 0 -9.95851
ltoes -13.7104
rfemur 0.793365 -6.06798 23.9628
rtibia 56.6798
rfoot -14.7989 0 30.6293
rtoes -52.8747
lowerback 10.3036 1.56917 -0.756833
upperback 3.2493 1.73336 -0.00016586
thorax -2.41763 0.74488 0.219174
lowerneck 6.60184 -14.9626 -26.8077
upperneck 6.85339 -23.9135 20.9002
head 6.82493 -12.3603 8.90057
lclavicle 3.0911e-014 -5.1684e-015
lhumerus -46.4174 20.1184 69.7293
lradius 22.8386
lwrist -4.71994
lhand -10.7941 29.9071
lfingers 7.12502
lthumb 15.2188 59.3274
rclavicle 3.0911e-014 -5.1684e-015
rhumerus -27.3893 -1.85349 -81.5203
rradius 39.0637
rwrist -3.18057
rhand -21.1811 13.8896
rfingers 7.12502
rthumb 5.1995 -16.0267
9
root 7.33563 17.3841 19.7933 -2.9037 -172.975 -1.3498
lfemur -22.3331 -0.163841 -19.9628
ltibia 41.4853
lfoot -12.8186 0 -8.15382
ltoes -16.6803
rfemur -3.20259 -8.26267 20.6131
rtibia 65.1298
rfoot -9.74206 0 32.7932
rtoes -49.4383
lowerback 11.4832 1.52179 -2.49557
upperback 3.46731 1.40489 -0.123607
thorax -2.8745 0.561051 1.09045
lowerneck 8.17676 -14.5759 -27.0335
upperneck 5.32789 -23.6009 21.4876
head 6.12406 -12.2974 9.35678
lclavicle 3.37934e-015 -1.19271e-015
lhumerus -46.26 19.1896 71.229
lradius 23.1447
lwrist -4.44965
lhand -10.684 29.0501
lfingers 7.12502
lthumb 15.3249 58.4623
rclavicle 3.37934e-015 -1.19271e-015
rhumerus -28.7315 -1.29392 -81.7461
rradius 37.9477
rwrist -1.64461
rhand -21.9328 15.2797
rfingers 7.12502
rthumb 4.47363 -14.653
10
root 7.25799 17.3356 19.2398 -3.73916 -173.275 -0.507487
lfemur -19.7407 -0.94112 -21.0589
ltibia 42.3378
lfoot -15.0384 0 -6.50544
ltoes -19.2547
rfemur -8.18416 -9.6434 19.0255
rtibia 72.0942
rfoot -5.35531 0 26.2407
rtoes -49.6953
lowerback 11.7549 1.59182 -3.5126
upperback 3.77119 1.33885 0.0123302
thorax -2.73043 0.504521 1.81241
lowerneck 8.3589 -14.2236 -27.1907
upperneck 4.65881 -23.1255 22.0372
head 5.8661 -12.0791 9.68426
lclavicle 1.15792e-014 5.56597e-015
lhumerus -44.7383 18.3358 73.0987
lradius 23.6927
lwrist -4.16328
lhand -10.4498 29.5219
lfingers 7.12502
lthumb 15.5505 58.9167
rclavicle 1.15792e-014 5.56597e-015
rhumerus -29.5092 -1.97897 -81.967
rradius 36.6721
rwrist -1.61844
rhand -21.3263 12.9283
rfingers 7.12502
rthumb 5.05933 -16.9913
11
root 7.17301 17.3279 18.6899 -4.4201 -174.719 0.650227
lfemur -16.5416 -0.562302 -22.4524
ltibia 42.0252
lfoot -16.8385 0 -5.28339
ltoes -16.3998
rfemur -13.0734 -9.13731 17.3569
rtibia 75.8164
rfoot -5.30824 0 17.3347
rtoes -50.1601
lowerback 12.0036 1.96574 -4.34808
upperback 4.04168 1.6745 -0.164628
thorax -2.62155 0.642411 2.04898
lowerneck 8.43083 -14.2228 -26.8771
upperneck 4.3722 -23.1114 22.1748
head 5.74415 -12.0734 9.70403
lclavicle 3.06625e-014 -6.55989e-015
lhumerus -42.7895 19.4063 73.4607
lradius 23.5631
lwrist -5.3324
lhand -11.1885 29.5383
lfingers 7.12502
lthumb 14.8389 58.9869
rclavicle 3.06625e-014 -6.55989e-015
rhumerus -29.7035 -4.07789 -82.1988
rradius 34.3154
rwrist -1.43098
rhand -22.4137 14.0373
rfingers 7.12502
rthumb 4.00928 -15.9047
12
root 7.1023 17.3302 18.1643 -4.74074 -175.386 1.85597
lfemur -13.3223 -0.709443 -24.0102
ltibia 40.9099
lfoot -18.4587 0 -3.87226
ltoes -15.6773
rfemur -17.7411 -8.85231 16.0766
rtibia 76.2544
rfoot -6.82062 0 9.67411
rtoes -50.3487
lowerback 11.9068 1.80343 -5.38235
upperback 3.87339 1.34583 -0.289496
thorax -2.74081 0.487846 2.54798
lowerneck 9.71348 -13.7204 -27.1814
upperneck 4.0892 -22.8561 22.5134
head 5.4607 -12.0541 10.0434
lclavicle -3.08862e-014 -7.15625e-015
lhumerus -41.5108 19.8381 74.0818
lradius 23.9289
lwrist -4.73628
lhand -11.6375 30.3059
lfingers 7.12502
lthumb 14.4063 59.7859
rclavicle -3.08862e-014 -7.15625e-015
rhumerus -30.5374 -5.98765 -82.2874
rradius 33.2211
rwrist 2.08139
rhand -20.2899 6.20585
rfingers 7.12502
rthumb 6.05991 -23.6875
13
root 7.03454 17.37 17.6669 -4.92669 -176.035 2.21768
lfemur -10.83 -1.11176 -24.7988
ltibia 39.8242
lfoot -19.5426 0 -1.92817
ltoes -17.7895
rfemur -21.6536 -8.63136 16.0528
rtibia 73.1687
rfoot -6.57468 0 3.24044
rtoes -50.365
lowerback 12.1257 1.35687 -5.41536
upperback 3.67645 0.748739 -0.210449
thorax -3.017 0.209303 2.73297
lowerneck 7.932 -13.7228 -26.6598
upperneck 5.79228 -22.55 21.2774
head 5.96297 -11.8072 9.43191
lclavicle -1.50331e-015 6.36111e-015
lhumerus -40.0691 19.5246 75.2099
lradius 24.7752
lwrist -2.75573
lhand -12.376 30.4428
lfingers 7.12502
lthumb 13.6946 59.9722
rclavicle -1.50331e-015 6.36111e-015
rhumerus -30.9796 -7.15078 -82.6688
rradius 30.439
rwrist 2.27348
rhand -20.4866 7.97058
rfingers 7.12502
rthumb 5.87002 -21.9281
14
root 6.99218 17.4524 17.1657 -4.9799 -176.422 2.75064
lfemur -7.83515 -1.19178 -25.6608
ltibia 37.5844
lfoot -19.4409 0 -0.615665
ltoes -17.3681
rfemur -24.8488 -8.43207 15.955
rtibia 67.3635
rfoot -5.28607 0 -0.205953
rtoes -50.0052
lowerback 12.1717 0.913018 -5.84637
upperback 3.52953 0.122138 -0.0459793
thorax -3.14082 -0.0877509 3.24063
lowerneck 7.40582 -13.6156 -26.1265
upperneck 6.2715 -22.2065 20.3515
head 5.92738 -11.6068 9.06268
lclavicle 5.06241e-015 -1.32005e-015
lhumerus -38.2495 17.5571 77.4158
lradius 26.6688
lwrist -0.130479
lhand -12.7794 33.3061
lfingers 7.12502
lthumb 13.3058 62.8613
rclavicle 5.06241e-015 -1.32005e-015
rhumerus -31.8872 -7.30801 -83.0214
rradius 28.1069
rwrist 0.844151
rhand -20.2333 12.5572
rfingers 7.12502
rthumb 6.11457 -17.3346
15
root 6.95579 17.5174 16.682 -4.62326 -177.249 3.60886
lfemur -4.63588 -1.10479 -26.8449
ltibia 34.5704
lfoot -19.704 0 0.224112
ltoes -17.3256
rfemur -27.5277 -7.67634 15.4457
rtibia 59.4084
rfoot -4.2022 0 -1.40893
rtoes -50.1237
lowerback 12.1365 0.538107 -6.71918
upperback 3.18972 -0.4543 0.0551928
thorax -3.4104 -0.339631 3.92597
lowerneck 7.62659 -13.1184 -25.2819
upperneck 6.00798 -21.4064 19.7072
head 5.44276 -11.22 8.90542
lclavicle -2.11209e-015 1.86858e-014
lhumerus -36.7635 15.0762 79.2129
lradius 28.4441
lwrist 1.77007
lhand -13.1083 31.2723
lfingers 7.12502
lthumb 12.9888 60.848
rclavicle -2.11209e-015 1.86858e-014
rhumerus -32.8178 -6.62375 -83.3311
rradius 26.9346
rwrist 2.78186
rhand -19.1379 13.7317
rfingers 7.12502
rthumb 7.17203 -16.1268
